<svg xmlns="http://www.w3.org/2000/svg" width="1024" height="1024" fill="none" viewBox="-10 80 185 185">
  <!-- Right dark tablet -->
  <path d="m146.4 104.4-42.06-12.69c-3.09-0.95-5.58 0-6.54 3.08l-11.72 38.26c-0.95 3.08 0.79 6.24 3.87 7.19l32.52 42.06c3.08 0.95 5.57 0 6.52-3.08l20.9-69.41c0.95-3.08-0.41-4.46-3.49-5.41z" fill="#45545E"/>
  <!-- Right orange screen -->
  <path d="m100.4 98.96 44.83 12.75-18.47 64.04-38.26-11.72 11.9-65.07z" fill="#FB9300"/>
  <!-- Silver phone -->
  <path d="m117.8 112.1-24.62-4.79c-3.71-0.83-5.96 0.8-6.9 5.5l-6.19 56.91c-0.48 3.71 1.63 6.68 5.34 7.4l15.97 0.01c3.71-0.73 5.69-2.79 6.64-7.02l13.48-50.74c1.1-3.71-0.01-6.31-3.72-7.27z" fill="#B9BDC2"/>
  <path d="m119.6 119.2-32.86-7.1-1.05 4.13 32.97 6.9 0.94-3.93z" fill="#CACED3"/>
  <path d="m116.1 116.7c0.59 0 1.07-0.36 1.07-0.81s-0.48-0.81-1.07-0.81c-0.6 0-1.08 0.36-1.08 0.81s0.48 0.81 1.08 0.81z" fill="#52616B"/>
  <path d="m109.4 114.3-8.61-2.51c-0.44-0.13-0.71-0.58-0.59-1.02s0.59-0.69 1.03-0.56l8.61 2.51c0.44 0.13 0.7 0.59 0.58 1.02-0.12 0.44-0.58 0.69-1.02 0.56z" fill="#52616B"/>
  <!-- Center black phone -->
  <path d="m88.72 117.9h-20.64c-3.23 0-5.24 2.18-5.24 5.41v48.6c0 3.23 2.01 5.2 5.24 5.2h20.64c3.23 0 5.2-1.97 5.2-5.2v-48.6c0-3.23-1.97-5.41-5.2-5.41z" fill="#05171D"/>
  <path d="m91.61 127.2h-26.08v40.71h26.08v-40.71z" fill="#FB9300"/>
  <path d="m81.12 123.8h-5.68c-0.45 0-0.82 0.36-0.82 0.81s0.37 0.81 0.82 0.81h5.68c0.45 0 0.81-0.36 0.81-0.81s-0.36-0.81-0.81-0.81z" fill="#1A2C36"/>
  <!-- White iPad -->
  <g transform="rotate(-14, 38, 140)">
    <rect x="11" y="97" width="54" height="86" rx="5" ry="5" fill="#fff"/>
    <rect x="16" y="108" width="44" height="62" rx="2" ry="2" fill="#FB9300"/>
    <circle cx="38" cy="103" r="1.8" fill="#b0b0b0"/>
  </g>
  <!-- Small gray phone (left) -->
  <g transform="rotate(-14, 42, 142)">
    <rect x="30" y="112" width="24" height="52" rx="3.5" ry="3.5" fill="#52616B"/>
    <rect x="33" y="119" width="18" height="37" rx="1.5" ry="1.5" fill="#CACED3"/>
    <rect x="38" y="115" width="8" height="1.5" rx="0.75" fill="#374855"/>
  </g>
</svg>