<svg xmlns="http://www.w3.org/2000/svg" width="1024" height="1024" fill="none" viewBox="-10 -30 175 175">
  <!-- Body (main shape, partially visible) -->
  <path d="m134.8 224c9.93-3.08 14.58-17.96 14.58-17.96l-4.67-0.43s8.34-19.58 6.31-27.73-8.98-9.97-13.34-9.97l0.58-1.17-0.12-0.03-0.16-1.42-0.22-2.04c5.95-2.74 15.9-8.22 16.96-17.05 1.24-10.69-4.98-18.47-10.06-22.24l-9.97 3.77-0.23-4.15-2.15-39.46-0.82-18.57c-0.42-7-2.48-13.76-5.92-19.8l4.86-44.27-29.87 17.88c-7.7-3.07-15.05-4.23-21.9-4.23-7.93 0-14.77 1.63-21.51 4.02l-30.48-17.67 4.46 43.21c-3.42 5.92-5.16 12.15-5.37 19.25l-1.33 20.7-2.87 37.09-11.28 1.92c-4.04 4.44-9.94 11.64-9.3 21.69 0.79 12.66 12.98 17.81 17.19 19.18l-0.5 3.41h-1.11c-5.79 0-13.21 3.13-13.53 14.88-0.31 11.03 7.03 31.79 15.36 39.45 3.11 2.67 6.17 2.82 8.57 2.76h105.1c0.76-0.05 1.69-0.53 2.73-1.02z" fill="#727D89"/>
  <!-- Eyes -->
  <path d="m40.85 56.91 28.09 5.01c4.23 0.81 5.54-0.84 5.27-5.79" stroke="#05171D" stroke-linecap="round" stroke-linejoin="round" stroke-width="2.712"/>
  <path d="m45.42 59.02c-0.58 7.07 4.67 12.6 11.03 12.6 6.66 0 11.23-4.91 11.67-8.64l-4.7-1.16-9.58-1.76-8.42-1.62v0.58z" fill="#fff"/>
  <path d="m54.22 61.46c-0.4 3.13 1.81 5.01 4.39 5.01s4.34-2.01 4.52-4.05l-4.04-1.11-4.87-0.95v1.1z" fill="#05171D"/>
  <path d="m115.9 56.91-26.2 5.01c-4.23 0.81-6.5-0.84-6.6-5.79" stroke="#05171D" stroke-linecap="round" stroke-linejoin="round" stroke-width="2.712"/>
  <path d="m111.5 59.02c0 7.29-5.53 12.6-11.59 12.6-5.05 0-9.27-3.79-10.64-8.3l3.43-0.95 8.06-1.76 10.74-2.17v0.58z" fill="#fff"/>
  <path d="m103.8 61.46c0.41 3.13-1.81 5.01-4.02 5.01-2.63 0-4.25-1.84-4.52-4.1l3.95-1.06 4.59-0.95v1.1z" fill="#05171D"/>
  <!-- Nose -->
  <path d="m78.91 83.24v-4.31" stroke="#05171D" stroke-linecap="round" stroke-linejoin="round" stroke-width="1.808"/>
  <path d="m74.42 73.98 4.49-0.27h4.21c1.26 0 1.4 0.75 0.41 1.74l-3.72 4.23c-0.69 0.75-1.19 0.7-1.93-0.25l-3.38-3.98c-0.85-0.99-0.99-1.47-0.08-1.47z" fill="#05171D"/>
  <!-- Mouth -->
  <path d="m70.78 89.29 7.93-6.05 7.5 6.05" stroke="#05171D" stroke-linecap="round" stroke-linejoin="round" stroke-width="1.808"/>
  <!-- Whiskers left -->
  <path d="m16.82 71.24 35.33 7.5" stroke="#364756" stroke-linecap="round" stroke-linejoin="round" stroke-width="1.085"/>
  <path d="m12.82 80.93 39.33 1.49" stroke="#364756" stroke-linecap="round" stroke-linejoin="round" stroke-width="1.085"/>
  <path d="m16.56 91.41 35.59-4.85" stroke="#364756" stroke-linecap="round" stroke-linejoin="round" stroke-width="1.085"/>
  <!-- Whiskers right -->
  <path d="m104.6 79.07 36.09-7.5" stroke="#364756" stroke-linecap="round" stroke-linejoin="round" stroke-width="1.085"/>
  <path d="m105.1 80.93 39.6-0.2" stroke="#364756" stroke-linecap="round" stroke-linejoin="round" stroke-width="1.085"/>
  <path d="m104.6 87.09 36.09 4.59" stroke="#364756" stroke-linecap="round" stroke-linejoin="round" stroke-width="1.085"/>
  <!-- Left arm/hand -->
  <path d="m14.25 135.2c5.88 3.56 12.44 5.73 23.47 6.63 4.69 0.4 8.69-0.55 14.02 1.08 5.45 1.74 9.52 5.16 9.58 11.76 0.07 6.06-2.93 10.58-10.46 11.74-6.74 1.02-20.87 0-28.8-2.52s-12.05-4.68-15.82-8.89c-6.74-7.5-3.62-17.54 0.74-23.94l7.27 4.14z" fill="#727D89"/>
  <!-- Right arm/hand -->
  <path d="m142.2 135.2c-6.57 3.5-14.36 5.8-25.28 6.82-4.69 0.4-8.69-0.37-14.02 1.68-5.33 2.1-7.77 5.7-7.77 11.6 0 6.06 3.76 10.5 11.3 11.11 7.8 0.69 18.44-0.46 26.37-2.99 7.93-2.52 18.13-7.97 21.55-15.76l0.17-4.36c0.1-5.6-3.33-14.32-8.02-17.71l-4.3 9.61z" fill="#727D89"/>
</svg>